<?xml version="1.0" encoding="utf-8" standalone="no"?>
<!DOCTYPE svg PUBLIC "-//W3C//DTD SVG 1.1//EN"
  "http://www.w3.org/Graphics/SVG/1.1/DTD/svg11.dtd">
<svg xmlns:xlink="http://www.w3.org/1999/xlink" width="1080pt" height="288pt" viewBox="0 0 1080 288" xmlns="http://www.w3.org/2000/svg" version="1.1">
 <metadata>
  <rdf:RDF xmlns:dc="http://purl.org/dc/elements/1.1/" xmlns:cc="http://creativecommons.org/ns#" xmlns:rdf="http://www.w3.org/1999/02/22-rdf-syntax-ns#">
   <cc:Work>
    <dc:type rdf:resource="http://purl.org/dc/dcmitype/StillImage"/>
    <dc:date>2024-10-14T16:19:43.839853</dc:date>
    <dc:format>image/svg+xml</dc:format>
    <dc:creator>
     <cc:Agent>
      <dc:title>Matplotlib v3.9.2, https://matplotlib.org/</dc:title>
     </cc:Agent>
    </dc:creator>
   </cc:Work>
  </rdf:RDF>
 </metadata>
 <defs>
  <style type="text/css">*{stroke-linejoin: round; stroke-linecap: butt}</style>
 </defs>
 <g id="figure_1">
  <g id="patch_1">
   <path d="M 0 288 
L 1080 288 
L 1080 0 
L 0 0 
z
" style="fill: #ffffff"/>
  </g>
  <g id="axes_1">
   <g id="patch_2">
    <path d="M 47.81 260.12 
L 1028.95 260.12 
L 1028.95 25.44 
L 47.81 25.44 
z
" style="fill: #ffffff"/>
   </g>
   <g id="PathCollection_1">
    <defs>
     <path id="m46dddfe13d" d="M 0 3 
C 0.795609 3 1.55874 2.683901 2.12132 2.12132 
C 2.683901 1.55874 3 0.795609 3 0 
C 3 -0.795609 2.683901 -1.55874 2.12132 -2.12132 
C 1.55874 -2.683901 0.795609 -3 0 -3 
C -0.795609 -3 -1.55874 -2.683901 -2.12132 -2.12132 
C -2.683901 -1.55874 -3 -0.795609 -3 0 
C -3 0.795609 -2.683901 1.55874 -2.12132 2.12132 
C -1.55874 2.683901 -0.795609 3 0 3 
z
" style="stroke: #0000ff"/>
    </defs>
    <g clip-path="url(#pa5743987cf)">
     <use xlink:href="#m46dddfe13d" x="173.493223" y="37.085429" style="fill: #0000ff; stroke: #0000ff"/>
     <use xlink:href="#m46dddfe13d" x="218.540973" y="67.672895" style="fill: #0000ff; stroke: #0000ff"/>
     <use xlink:href="#m46dddfe13d" x="425.760624" y="121.214226" style="fill: #0000ff; stroke: #0000ff"/>
     <use xlink:href="#m46dddfe13d" x="479.817925" y="175.540403" style="fill: #0000ff; stroke: #0000ff"/>
     <use xlink:href="#m46dddfe13d" x="650.999376" y="238.186208" style="fill: #0000ff; stroke: #0000ff"/>
    </g>
   </g>
   <g id="PathCollection_2">
    <defs>
     <path id="ma35b1ee600" d="M 0 3 
C 0.795609 3 1.55874 2.683901 2.12132 2.12132 
C 2.683901 1.55874 3 0.795609 3 0 
C 3 -0.795609 2.683901 -1.55874 2.12132 -2.12132 
C 1.55874 -2.683901 0.795609 -3 0 -3 
C -0.795609 -3 -1.55874 -2.683901 -2.12132 -2.12132 
C -2.683901 -1.55874 -3 -0.795609 -3 0 
C -3 0.795609 -2.683901 1.55874 -2.12132 2.12132 
C -1.55874 2.683901 -0.795609 3 0 3 
z
" style="stroke: #ff0000"/>
    </defs>
    <g clip-path="url(#pa5743987cf)">
     <use xlink:href="#ma35b1ee600" x="218.540973" y="37.085429" style="fill: #ff0000; stroke: #ff0000"/>
     <use xlink:href="#ma35b1ee600" x="425.760624" y="67.672895" style="fill: #ff0000; stroke: #ff0000"/>
     <use xlink:href="#ma35b1ee600" x="479.817925" y="121.214226" style="fill: #ff0000; stroke: #ff0000"/>
     <use xlink:href="#ma35b1ee600" x="650.999376" y="175.540403" style="fill: #ff0000; stroke: #ff0000"/>
     <use xlink:href="#ma35b1ee600" x="840.199927" y="238.186208" style="fill: #ff0000; stroke: #ff0000"/>
    </g>
   </g>
   <g id="PathCollection_3">
    <defs>
     <path id="mad9af1a5ec" d="M 0 3 
C 0.795609 3 1.55874 2.683901 2.12132 2.12132 
C 2.683901 1.55874 3 0.795609 3 0 
C 3 -0.795609 2.683901 -1.55874 2.12132 -2.12132 
C 1.55874 -2.683901 0.795609 -3 0 -3 
C -0.795609 -3 -1.55874 -2.683901 -2.12132 -2.12132 
C -2.683901 -1.55874 -3 -0.795609 -3 0 
C -3 0.795609 -2.683901 1.55874 -2.12132 2.12132 
C -1.55874 2.683901 -0.795609 3 0 3 
z
" style="stroke: #800080"/>
    </defs>
    <g clip-path="url(#pa5743987cf)">
     <use xlink:href="#mad9af1a5ec" x="196.017098" y="37.085429" style="fill: #800080; stroke: #800080"/>
     <use xlink:href="#mad9af1a5ec" x="322.150799" y="67.672895" style="fill: #800080; stroke: #800080"/>
     <use xlink:href="#mad9af1a5ec" x="452.789275" y="121.214226" style="fill: #800080; stroke: #800080"/>
     <use xlink:href="#mad9af1a5ec" x="565.40865" y="175.540403" style="fill: #800080; stroke: #800080"/>
     <use xlink:href="#mad9af1a5ec" x="745.599651" y="238.186208" style="fill: #800080; stroke: #800080"/>
    </g>
   </g>
   <g id="matplotlib.axis_1">
    <g id="xtick_1">
     <g id="line2d_1">
      <defs>
       <path id="me00e9b88ce" d="M 0 0 
L 0 3.5 
" style="stroke: #000000; stroke-width: 0.8"/>
      </defs>
      <g>
       <use xlink:href="#me00e9b88ce" x="92.407273" y="260.12" style="stroke: #000000; stroke-width: 0.8"/>
      </g>
     </g>
     <g id="text_1">
      <!-- 0 -->
      <g transform="translate(89.226023 274.718437) scale(0.1 -0.1)">
       <defs>
        <path id="DejaVuSans-30" d="M 2034 4250 
Q 1547 4250 1301 3770 
Q 1056 3291 1056 2328 
Q 1056 1369 1301 889 
Q 1547 409 2034 409 
Q 2525 409 2770 889 
Q 3016 1369 3016 2328 
Q 3016 3291 2770 3770 
Q 2525 4250 2034 4250 
z
M 2034 4750 
Q 2819 4750 3233 4129 
Q 3647 3509 3647 2328 
Q 3647 1150 3233 529 
Q 2819 -91 2034 -91 
Q 1250 -91 836 529 
Q 422 1150 422 2328 
Q 422 3509 836 4129 
Q 1250 4750 2034 4750 
z
" transform="scale(0.015625)"/>
       </defs>
       <use xlink:href="#DejaVuSans-30"/>
      </g>
     </g>
    </g>
    <g id="xtick_2">
     <g id="line2d_2">
      <g>
       <use xlink:href="#me00e9b88ce" x="270.796364" y="260.12" style="stroke: #000000; stroke-width: 0.8"/>
      </g>
     </g>
     <g id="text_2">
      <!-- 20 -->
      <g transform="translate(264.433864 274.718437) scale(0.1 -0.1)">
       <defs>
        <path id="DejaVuSans-32" d="M 1228 531 
L 3431 531 
L 3431 0 
L 469 0 
L 469 531 
Q 828 903 1448 1529 
Q 2069 2156 2228 2338 
Q 2531 2678 2651 2914 
Q 2772 3150 2772 3378 
Q 2772 3750 2511 3984 
Q 2250 4219 1831 4219 
Q 1534 4219 1204 4116 
Q 875 4013 500 3803 
L 500 4441 
Q 881 4594 1212 4672 
Q 1544 4750 1819 4750 
Q 2544 4750 2975 4387 
Q 3406 4025 3406 3419 
Q 3406 3131 3298 2873 
Q 3191 2616 2906 2266 
Q 2828 2175 2409 1742 
Q 1991 1309 1228 531 
z
" transform="scale(0.015625)"/>
       </defs>
       <use xlink:href="#DejaVuSans-32"/>
       <use xlink:href="#DejaVuSans-30" x="63.623047"/>
      </g>
     </g>
    </g>
    <g id="xtick_3">
     <g id="line2d_3">
      <g>
       <use xlink:href="#me00e9b88ce" x="449.185455" y="260.12" style="stroke: #000000; stroke-width: 0.8"/>
      </g>
     </g>
     <g id="text_3">
      <!-- 40 -->
      <g transform="translate(442.822955 274.718437) scale(0.1 -0.1)">
       <defs>
        <path id="DejaVuSans-34" d="M 2419 4116 
L 825 1625 
L 2419 1625 
L 2419 4116 
z
M 2253 4666 
L 3047 4666 
L 3047 1625 
L 3713 1625 
L 3713 1100 
L 3047 1100 
L 3047 0 
L 2419 0 
L 2419 1100 
L 313 1100 
L 313 1709 
L 2253 4666 
z
" transform="scale(0.015625)"/>
       </defs>
       <use xlink:href="#DejaVuSans-34"/>
       <use xlink:href="#DejaVuSans-30" x="63.623047"/>
      </g>
     </g>
    </g>
    <g id="xtick_4">
     <g id="line2d_4">
      <g>
       <use xlink:href="#me00e9b88ce" x="627.574545" y="260.12" style="stroke: #000000; stroke-width: 0.8"/>
      </g>
     </g>
     <g id="text_4">
      <!-- 60 -->
      <g transform="translate(621.212045 274.718437) scale(0.1 -0.1)">
       <defs>
        <path id="DejaVuSans-36" d="M 2113 2584 
Q 1688 2584 1439 2293 
Q 1191 2003 1191 1497 
Q 1191 994 1439 701 
Q 1688 409 2113 409 
Q 2538 409 2786 701 
Q 3034 994 3034 1497 
Q 3034 2003 2786 2293 
Q 2538 2584 2113 2584 
z
M 3366 4563 
L 3366 3988 
Q 3128 4100 2886 4159 
Q 2644 4219 2406 4219 
Q 1781 4219 1451 3797 
Q 1122 3375 1075 2522 
Q 1259 2794 1537 2939 
Q 1816 3084 2150 3084 
Q 2853 3084 3261 2657 
Q 3669 2231 3669 1497 
Q 3669 778 3244 343 
Q 2819 -91 2113 -91 
Q 1303 -91 875 529 
Q 447 1150 447 2328 
Q 447 3434 972 4092 
Q 1497 4750 2381 4750 
Q 2619 4750 2861 4703 
Q 3103 4656 3366 4563 
z
" transform="scale(0.015625)"/>
       </defs>
       <use xlink:href="#DejaVuSans-36"/>
       <use xlink:href="#DejaVuSans-30" x="63.623047"/>
      </g>
     </g>
    </g>
    <g id="xtick_5">
     <g id="line2d_5">
      <g>
       <use xlink:href="#me00e9b88ce" x="805.963636" y="260.12" style="stroke: #000000; stroke-width: 0.8"/>
      </g>
     </g>
     <g id="text_5">
      <!-- 80 -->
      <g transform="translate(799.601136 274.718437) scale(0.1 -0.1)">
       <defs>
        <path id="DejaVuSans-38" d="M 2034 2216 
Q 1584 2216 1326 1975 
Q 1069 1734 1069 1313 
Q 1069 891 1326 650 
Q 1584 409 2034 409 
Q 2484 409 2743 651 
Q 3003 894 3003 1313 
Q 3003 1734 2745 1975 
Q 2488 2216 2034 2216 
z
M 1403 2484 
Q 997 2584 770 2862 
Q 544 3141 544 3541 
Q 544 4100 942 4425 
Q 1341 4750 2034 4750 
Q 2731 4750 3128 4425 
Q 3525 4100 3525 3541 
Q 3525 3141 3298 2862 
Q 3072 2584 2669 2484 
Q 3125 2378 3379 2068 
Q 3634 1759 3634 1313 
Q 3634 634 3220 271 
Q 2806 -91 2034 -91 
Q 1263 -91 848 271 
Q 434 634 434 1313 
Q 434 1759 690 2068 
Q 947 2378 1403 2484 
z
M 1172 3481 
Q 1172 3119 1398 2916 
Q 1625 2713 2034 2713 
Q 2441 2713 2670 2916 
Q 2900 3119 2900 3481 
Q 2900 3844 2670 4047 
Q 2441 4250 2034 4250 
Q 1625 4250 1398 4047 
Q 1172 3844 1172 3481 
z
" transform="scale(0.015625)"/>
       </defs>
       <use xlink:href="#DejaVuSans-38"/>
       <use xlink:href="#DejaVuSans-30" x="63.623047"/>
      </g>
     </g>
    </g>
    <g id="xtick_6">
     <g id="line2d_6">
      <g>
       <use xlink:href="#me00e9b88ce" x="984.352727" y="260.12" style="stroke: #000000; stroke-width: 0.8"/>
      </g>
     </g>
     <g id="text_6">
      <!-- 100 -->
      <g transform="translate(974.808977 274.718437) scale(0.1 -0.1)">
       <defs>
        <path id="DejaVuSans-31" d="M 794 531 
L 1825 531 
L 1825 4091 
L 703 3866 
L 703 4441 
L 1819 4666 
L 2450 4666 
L 2450 531 
L 3481 531 
L 3481 0 
L 794 0 
L 794 531 
z
" transform="scale(0.015625)"/>
       </defs>
       <use xlink:href="#DejaVuSans-31"/>
       <use xlink:href="#DejaVuSans-30" x="63.623047"/>
       <use xlink:href="#DejaVuSans-30" x="127.246094"/>
      </g>
     </g>
    </g>
    <g id="text_7">
     <!-- Day of year -->
     <g transform="translate(509.353438 288.396563) scale(0.1 -0.1)">
      <defs>
       <path id="DejaVuSans-44" d="M 1259 4147 
L 1259 519 
L 2022 519 
Q 2988 519 3436 956 
Q 3884 1394 3884 2338 
Q 3884 3275 3436 3711 
Q 2988 4147 2022 4147 
L 1259 4147 
z
M 628 4666 
L 1925 4666 
Q 3281 4666 3915 4102 
Q 4550 3538 4550 2338 
Q 4550 1131 3912 565 
Q 3275 0 1925 0 
L 628 0 
L 628 4666 
z
" transform="scale(0.015625)"/>
       <path id="DejaVuSans-61" d="M 2194 1759 
Q 1497 1759 1228 1600 
Q 959 1441 959 1056 
Q 959 750 1161 570 
Q 1363 391 1709 391 
Q 2188 391 2477 730 
Q 2766 1069 2766 1631 
L 2766 1759 
L 2194 1759 
z
M 3341 1997 
L 3341 0 
L 2766 0 
L 2766 531 
Q 2569 213 2275 61 
Q 1981 -91 1556 -91 
Q 1019 -91 701 211 
Q 384 513 384 1019 
Q 384 1609 779 1909 
Q 1175 2209 1959 2209 
L 2766 2209 
L 2766 2266 
Q 2766 2663 2505 2880 
Q 2244 3097 1772 3097 
Q 1472 3097 1187 3025 
Q 903 2953 641 2809 
L 641 3341 
Q 956 3463 1253 3523 
Q 1550 3584 1831 3584 
Q 2591 3584 2966 3190 
Q 3341 2797 3341 1997 
z
" transform="scale(0.015625)"/>
       <path id="DejaVuSans-79" d="M 2059 -325 
Q 1816 -950 1584 -1140 
Q 1353 -1331 966 -1331 
L 506 -1331 
L 506 -850 
L 844 -850 
Q 1081 -850 1212 -737 
Q 1344 -625 1503 -206 
L 1606 56 
L 191 3500 
L 800 3500 
L 1894 763 
L 2988 3500 
L 3597 3500 
L 2059 -325 
z
" transform="scale(0.015625)"/>
       <path id="DejaVuSans-20" transform="scale(0.015625)"/>
       <path id="DejaVuSans-6f" d="M 1959 3097 
Q 1497 3097 1228 2736 
Q 959 2375 959 1747 
Q 959 1119 1226 758 
Q 1494 397 1959 397 
Q 2419 397 2687 759 
Q 2956 1122 2956 1747 
Q 2956 2369 2687 2733 
Q 2419 3097 1959 3097 
z
M 1959 3584 
Q 2709 3584 3137 3096 
Q 3566 2609 3566 1747 
Q 3566 888 3137 398 
Q 2709 -91 1959 -91 
Q 1206 -91 779 398 
Q 353 888 353 1747 
Q 353 2609 779 3096 
Q 1206 3584 1959 3584 
z
" transform="scale(0.015625)"/>
       <path id="DejaVuSans-66" d="M 2375 4863 
L 2375 4384 
L 1825 4384 
Q 1516 4384 1395 4259 
Q 1275 4134 1275 3809 
L 1275 3500 
L 2222 3500 
L 2222 3053 
L 1275 3053 
L 1275 0 
L 697 0 
L 697 3053 
L 147 3053 
L 147 3500 
L 697 3500 
L 697 3744 
Q 697 4328 969 4595 
Q 1241 4863 1831 4863 
L 2375 4863 
z
" transform="scale(0.015625)"/>
       <path id="DejaVuSans-65" d="M 3597 1894 
L 3597 1613 
L 953 1613 
Q 991 1019 1311 708 
Q 1631 397 2203 397 
Q 2534 397 2845 478 
Q 3156 559 3463 722 
L 3463 178 
Q 3153 47 2828 -22 
Q 2503 -91 2169 -91 
Q 1331 -91 842 396 
Q 353 884 353 1716 
Q 353 2575 817 3079 
Q 1281 3584 2069 3584 
Q 2775 3584 3186 3129 
Q 3597 2675 3597 1894 
z
M 3022 2063 
Q 3016 2534 2758 2815 
Q 2500 3097 2075 3097 
Q 1594 3097 1305 2825 
Q 1016 2553 972 2059 
L 3022 2063 
z
" transform="scale(0.015625)"/>
       <path id="DejaVuSans-72" d="M 2631 2963 
Q 2534 3019 2420 3045 
Q 2306 3072 2169 3072 
Q 1681 3072 1420 2755 
Q 1159 2438 1159 1844 
L 1159 0 
L 581 0 
L 581 3500 
L 1159 3500 
L 1159 2956 
Q 1341 3275 1631 3429 
Q 1922 3584 2338 3584 
Q 2397 3584 2469 3576 
Q 2541 3569 2628 3553 
L 2631 2963 
z
" transform="scale(0.015625)"/>
      </defs>
      <use xlink:href="#DejaVuSans-44"/>
      <use xlink:href="#DejaVuSans-61" x="77.001953"/>
      <use xlink:href="#DejaVuSans-79" x="138.28125"/>
      <use xlink:href="#DejaVuSans-20" x="197.460938"/>
      <use xlink:href="#DejaVuSans-6f" x="229.248047"/>
      <use xlink:href="#DejaVuSans-66" x="290.429688"/>
      <use xlink:href="#DejaVuSans-20" x="325.634766"/>
      <use xlink:href="#DejaVuSans-79" x="357.421875"/>
      <use xlink:href="#DejaVuSans-65" x="416.601562"/>
      <use xlink:href="#DejaVuSans-61" x="478.125"/>
      <use xlink:href="#DejaVuSans-72" x="539.404297"/>
     </g>
    </g>
   </g>
   <g id="matplotlib.axis_2">
    <g id="ytick_1">
     <g id="line2d_7">
      <defs>
       <path id="m784dc2671a" d="M 0 0 
L -3.5 0 
" style="stroke: #000000; stroke-width: 0.8"/>
      </defs>
      <g>
       <use xlink:href="#m784dc2671a" x="47.81" y="216.373378" style="stroke: #000000; stroke-width: 0.8"/>
      </g>
     </g>
     <g id="text_8">
      <!-- 0.0 -->
      <g style="fill: #ff00ff" transform="translate(24.906875 220.172596) scale(0.1 -0.1)">
       <defs>
        <path id="DejaVuSans-2e" d="M 684 794 
L 1344 794 
L 1344 0 
L 684 0 
L 684 794 
z
" transform="scale(0.015625)"/>
       </defs>
       <use xlink:href="#DejaVuSans-30"/>
       <use xlink:href="#DejaVuSans-2e" x="63.623047"/>
       <use xlink:href="#DejaVuSans-30" x="95.410156"/>
      </g>
     </g>
    </g>
    <g id="ytick_2">
     <g id="line2d_8">
      <g>
       <use xlink:href="#m784dc2671a" x="47.81" y="165.877512" style="stroke: #000000; stroke-width: 0.8"/>
      </g>
     </g>
     <g id="text_9">
      <!-- 0.2 -->
      <g style="fill: #ff00ff" transform="translate(24.906875 169.676731) scale(0.1 -0.1)">
       <use xlink:href="#DejaVuSans-30"/>
       <use xlink:href="#DejaVuSans-2e" x="63.623047"/>
       <use xlink:href="#DejaVuSans-32" x="95.410156"/>
      </g>
     </g>
    </g>
    <g id="ytick_3">
     <g id="line2d_9">
      <g>
       <use xlink:href="#m784dc2671a" x="47.81" y="115.381647" style="stroke: #000000; stroke-width: 0.8"/>
      </g>
     </g>
     <g id="text_10">
      <!-- 0.4 -->
      <g style="fill: #ff00ff" transform="translate(24.906875 119.180865) scale(0.1 -0.1)">
       <use xlink:href="#DejaVuSans-30"/>
       <use xlink:href="#DejaVuSans-2e" x="63.623047"/>
       <use xlink:href="#DejaVuSans-34" x="95.410156"/>
      </g>
     </g>
    </g>
    <g id="ytick_4">
     <g id="line2d_10">
      <g>
       <use xlink:href="#m784dc2671a" x="47.81" y="64.885781" style="stroke: #000000; stroke-width: 0.8"/>
      </g>
     </g>
     <g id="text_11">
      <!-- 0.6 -->
      <g style="fill: #ff00ff" transform="translate(24.906875 68.685) scale(0.1 -0.1)">
       <use xlink:href="#DejaVuSans-30"/>
       <use xlink:href="#DejaVuSans-2e" x="63.623047"/>
       <use xlink:href="#DejaVuSans-36" x="95.410156"/>
      </g>
     </g>
    </g>
    <g id="text_12">
     <!-- growth rate [m/days] -->
     <g style="fill: #ff00ff" transform="translate(18.827187 195.7675) rotate(-90) scale(0.1 -0.1)">
      <defs>
       <path id="DejaVuSans-67" d="M 2906 1791 
Q 2906 2416 2648 2759 
Q 2391 3103 1925 3103 
Q 1463 3103 1205 2759 
Q 947 2416 947 1791 
Q 947 1169 1205 825 
Q 1463 481 1925 481 
Q 2391 481 2648 825 
Q 2906 1169 2906 1791 
z
M 3481 434 
Q 3481 -459 3084 -895 
Q 2688 -1331 1869 -1331 
Q 1566 -1331 1297 -1286 
Q 1028 -1241 775 -1147 
L 775 -588 
Q 1028 -725 1275 -790 
Q 1522 -856 1778 -856 
Q 2344 -856 2625 -561 
Q 2906 -266 2906 331 
L 2906 616 
Q 2728 306 2450 153 
Q 2172 0 1784 0 
Q 1141 0 747 490 
Q 353 981 353 1791 
Q 353 2603 747 3093 
Q 1141 3584 1784 3584 
Q 2172 3584 2450 3431 
Q 2728 3278 2906 2969 
L 2906 3500 
L 3481 3500 
L 3481 434 
z
" transform="scale(0.015625)"/>
       <path id="DejaVuSans-77" d="M 269 3500 
L 844 3500 
L 1563 769 
L 2278 3500 
L 2956 3500 
L 3675 769 
L 4391 3500 
L 4966 3500 
L 4050 0 
L 3372 0 
L 2619 2869 
L 1863 0 
L 1184 0 
L 269 3500 
z
" transform="scale(0.015625)"/>
       <path id="DejaVuSans-74" d="M 1172 4494 
L 1172 3500 
L 2356 3500 
L 2356 3053 
L 1172 3053 
L 1172 1153 
Q 1172 725 1289 603 
Q 1406 481 1766 481 
L 2356 481 
L 2356 0 
L 1766 0 
Q 1100 0 847 248 
Q 594 497 594 1153 
L 594 3053 
L 172 3053 
L 172 3500 
L 594 3500 
L 594 4494 
L 1172 4494 
z
" transform="scale(0.015625)"/>
       <path id="DejaVuSans-68" d="M 3513 2113 
L 3513 0 
L 2938 0 
L 2938 2094 
Q 2938 2591 2744 2837 
Q 2550 3084 2163 3084 
Q 1697 3084 1428 2787 
Q 1159 2491 1159 1978 
L 1159 0 
L 581 0 
L 581 4863 
L 1159 4863 
L 1159 2956 
Q 1366 3272 1645 3428 
Q 1925 3584 2291 3584 
Q 2894 3584 3203 3211 
Q 3513 2838 3513 2113 
z
" transform="scale(0.015625)"/>
       <path id="DejaVuSans-5b" d="M 550 4863 
L 1875 4863 
L 1875 4416 
L 1125 4416 
L 1125 -397 
L 1875 -397 
L 1875 -844 
L 550 -844 
L 550 4863 
z
" transform="scale(0.015625)"/>
       <path id="DejaVuSans-6d" d="M 3328 2828 
Q 3544 3216 3844 3400 
Q 4144 3584 4550 3584 
Q 5097 3584 5394 3201 
Q 5691 2819 5691 2113 
L 5691 0 
L 5113 0 
L 5113 2094 
Q 5113 2597 4934 2840 
Q 4756 3084 4391 3084 
Q 3944 3084 3684 2787 
Q 3425 2491 3425 1978 
L 3425 0 
L 2847 0 
L 2847 2094 
Q 2847 2600 2669 2842 
Q 2491 3084 2119 3084 
Q 1678 3084 1418 2786 
Q 1159 2488 1159 1978 
L 1159 0 
L 581 0 
L 581 3500 
L 1159 3500 
L 1159 2956 
Q 1356 3278 1631 3431 
Q 1906 3584 2284 3584 
Q 2666 3584 2933 3390 
Q 3200 3197 3328 2828 
z
" transform="scale(0.015625)"/>
       <path id="DejaVuSans-2f" d="M 1625 4666 
L 2156 4666 
L 531 -594 
L 0 -594 
L 1625 4666 
z
" transform="scale(0.015625)"/>
       <path id="DejaVuSans-64" d="M 2906 2969 
L 2906 4863 
L 3481 4863 
L 3481 0 
L 2906 0 
L 2906 525 
Q 2725 213 2448 61 
Q 2172 -91 1784 -91 
Q 1150 -91 751 415 
Q 353 922 353 1747 
Q 353 2572 751 3078 
Q 1150 3584 1784 3584 
Q 2172 3584 2448 3432 
Q 2725 3281 2906 2969 
z
M 947 1747 
Q 947 1113 1208 752 
Q 1469 391 1925 391 
Q 2381 391 2643 752 
Q 2906 1113 2906 1747 
Q 2906 2381 2643 2742 
Q 2381 3103 1925 3103 
Q 1469 3103 1208 2742 
Q 947 2381 947 1747 
z
" transform="scale(0.015625)"/>
       <path id="DejaVuSans-73" d="M 2834 3397 
L 2834 2853 
Q 2591 2978 2328 3040 
Q 2066 3103 1784 3103 
Q 1356 3103 1142 2972 
Q 928 2841 928 2578 
Q 928 2378 1081 2264 
Q 1234 2150 1697 2047 
L 1894 2003 
Q 2506 1872 2764 1633 
Q 3022 1394 3022 966 
Q 3022 478 2636 193 
Q 2250 -91 1575 -91 
Q 1294 -91 989 -36 
Q 684 19 347 128 
L 347 722 
Q 666 556 975 473 
Q 1284 391 1588 391 
Q 1994 391 2212 530 
Q 2431 669 2431 922 
Q 2431 1156 2273 1281 
Q 2116 1406 1581 1522 
L 1381 1569 
Q 847 1681 609 1914 
Q 372 2147 372 2553 
Q 372 3047 722 3315 
Q 1072 3584 1716 3584 
Q 2034 3584 2315 3537 
Q 2597 3491 2834 3397 
z
" transform="scale(0.015625)"/>
       <path id="DejaVuSans-5d" d="M 1947 4863 
L 1947 -844 
L 622 -844 
L 622 -397 
L 1369 -397 
L 1369 4416 
L 622 4416 
L 622 4863 
L 1947 4863 
z
" transform="scale(0.015625)"/>
      </defs>
      <use xlink:href="#DejaVuSans-67"/>
      <use xlink:href="#DejaVuSans-72" x="63.476562"/>
      <use xlink:href="#DejaVuSans-6f" x="102.339844"/>
      <use xlink:href="#DejaVuSans-77" x="163.521484"/>
      <use xlink:href="#DejaVuSans-74" x="245.308594"/>
      <use xlink:href="#DejaVuSans-68" x="284.517578"/>
      <use xlink:href="#DejaVuSans-20" x="347.896484"/>
      <use xlink:href="#DejaVuSans-72" x="379.683594"/>
      <use xlink:href="#DejaVuSans-61" x="420.796875"/>
      <use xlink:href="#DejaVuSans-74" x="482.076172"/>
      <use xlink:href="#DejaVuSans-65" x="521.285156"/>
      <use xlink:href="#DejaVuSans-20" x="582.808594"/>
      <use xlink:href="#DejaVuSans-5b" x="614.595703"/>
      <use xlink:href="#DejaVuSans-6d" x="653.609375"/>
      <use xlink:href="#DejaVuSans-2f" x="751.021484"/>
      <use xlink:href="#DejaVuSans-64" x="784.712891"/>
      <use xlink:href="#DejaVuSans-61" x="848.189453"/>
      <use xlink:href="#DejaVuSans-79" x="909.46875"/>
      <use xlink:href="#DejaVuSans-73" x="968.648438"/>
      <use xlink:href="#DejaVuSans-5d" x="1020.748047"/>
     </g>
    </g>
   </g>
   <g id="line2d_11">
    <path d="M 92.407273 47.151501 
L 101.416823 44.768417 
L 110.426373 42.690554 
L 119.435923 40.910954 
L 128.445473 39.422659 
L 137.455023 38.218713 
L 146.464573 37.292158 
L 155.474123 36.636038 
L 164.483673 36.243395 
L 173.493223 36.107273 
L 182.502773 36.220713 
L 191.512323 36.576759 
L 200.521873 37.168454 
L 209.531423 37.988841 
L 218.540973 39.030962 
L 227.550523 40.287861 
L 236.560073 41.752579 
L 245.569624 43.418161 
L 254.579174 45.277649 
L 263.588724 47.324086 
L 272.598274 49.550515 
L 281.607824 51.949978 
L 290.617374 54.515519 
L 299.626924 57.24018 
L 308.636474 60.117005 
L 317.646024 63.139035 
L 326.655574 66.299315 
L 335.665124 69.590887 
L 344.674674 73.006793 
L 353.684224 76.540077 
L 362.693774 80.183781 
L 371.703324 83.930949 
L 380.712874 87.774624 
L 389.722424 91.707847 
L 398.731974 95.723662 
L 407.741524 99.815113 
L 416.751074 103.975241 
L 425.760624 108.197089 
L 434.770174 112.473702 
L 443.779725 116.79812 
L 452.789275 121.163388 
L 461.798825 125.562548 
L 470.808375 129.988643 
L 479.817925 134.434716 
L 488.827475 138.89381 
L 497.837025 143.358968 
L 506.846575 147.823232 
L 515.856125 152.279645 
L 524.865675 156.721251 
L 533.875225 161.141091 
L 542.884775 165.53221 
L 551.894325 169.88765 
L 560.903875 174.200454 
L 569.913425 178.463664 
L 578.922975 182.670324 
L 587.932525 186.813476 
L 596.942075 190.886163 
L 605.951625 194.881429 
L 614.961175 198.792315 
L 623.970725 202.611866 
L 632.980275 206.333123 
L 641.989826 209.94913 
L 650.999376 213.45293 
L 660.008926 216.837565 
L 669.018476 220.096078 
L 678.028026 223.221512 
L 687.037576 226.206911 
L 696.047126 229.045316 
L 705.056676 231.729771 
L 714.066226 234.253319 
L 723.075776 236.609002 
L 732.085326 238.789864 
L 741.094876 240.788947 
L 750.104426 242.599294 
L 759.113976 244.213949 
L 768.123526 245.625953 
L 777.133076 246.82835 
L 786.142626 247.814183 
L 795.152176 248.576494 
L 804.161726 249.108326 
L 813.171276 249.402723 
L 822.180826 249.452727 
L 831.190376 249.251381 
L 840.199927 248.791728 
L 849.209477 248.066811 
L 858.219027 247.069673 
L 867.228577 245.793356 
L 876.238127 244.230903 
L 885.247677 242.375358 
L 894.257227 240.219763 
L 903.266777 237.757161 
L 912.276327 234.980595 
L 921.285877 231.883108 
L 930.295427 228.457742 
L 939.304977 224.697541 
L 948.314527 220.595547 
L 957.324077 216.144804 
L 966.333627 211.338354 
L 975.343177 206.169239 
L 984.352727 200.630504 
" clip-path="url(#pa5743987cf)" style="fill: none; stroke: #ff00ff; stroke-width: 1.5; stroke-linecap: square"/>
   </g>
   <g id="patch_3">
    <path d="M 47.81 260.12 
L 47.81 25.44 
" style="fill: none; stroke: #000000; stroke-width: 0.8; stroke-linejoin: miter; stroke-linecap: square"/>
   </g>
   <g id="patch_4">
    <path d="M 1028.95 260.12 
L 1028.95 25.44 
" style="fill: none; stroke: #000000; stroke-width: 0.8; stroke-linejoin: miter; stroke-linecap: square"/>
   </g>
   <g id="patch_5">
    <path d="M 47.81 260.12 
L 1028.95 260.12 
" style="fill: none; stroke: #000000; stroke-width: 0.8; stroke-linejoin: miter; stroke-linecap: square"/>
   </g>
   <g id="patch_6">
    <path d="M 47.81 25.44 
L 1028.95 25.44 
" style="fill: none; stroke: #000000; stroke-width: 0.8; stroke-linejoin: miter; stroke-linecap: square"/>
   </g>
   <g id="legend_1">
    <g id="patch_7">
     <path d="M 54.81 255.12 
L 241.250625 255.12 
Q 243.250625 255.12 243.250625 253.12 
L 243.250625 194.573125 
Q 243.250625 192.573125 241.250625 192.573125 
L 54.81 192.573125 
Q 52.81 192.573125 52.81 194.573125 
L 52.81 253.12 
Q 52.81 255.12 54.81 255.12 
z
" style="fill: #ffffff; opacity: 0.8; stroke: #cccccc; stroke-linejoin: miter"/>
    </g>
    <g id="line2d_12">
     <path d="M 56.81 200.671562 
L 66.81 200.671562 
L 76.81 200.671562 
" style="fill: none; stroke: #ff00ff; stroke-width: 1.5; stroke-linecap: square"/>
    </g>
    <g id="text_13">
     <!-- Derivative -->
     <g transform="translate(84.81 204.171562) scale(0.1 -0.1)">
      <defs>
       <path id="DejaVuSans-69" d="M 603 3500 
L 1178 3500 
L 1178 0 
L 603 0 
L 603 3500 
z
M 603 4863 
L 1178 4863 
L 1178 4134 
L 603 4134 
L 603 4863 
z
" transform="scale(0.015625)"/>
       <path id="DejaVuSans-76" d="M 191 3500 
L 800 3500 
L 1894 563 
L 2988 3500 
L 3597 3500 
L 2284 0 
L 1503 0 
L 191 3500 
z
" transform="scale(0.015625)"/>
      </defs>
      <use xlink:href="#DejaVuSans-44"/>
      <use xlink:href="#DejaVuSans-65" x="77.001953"/>
      <use xlink:href="#DejaVuSans-72" x="138.525391"/>
      <use xlink:href="#DejaVuSans-69" x="179.638672"/>
      <use xlink:href="#DejaVuSans-76" x="207.421875"/>
      <use xlink:href="#DejaVuSans-61" x="266.601562"/>
      <use xlink:href="#DejaVuSans-74" x="327.880859"/>
      <use xlink:href="#DejaVuSans-69" x="367.089844"/>
      <use xlink:href="#DejaVuSans-76" x="394.873047"/>
      <use xlink:href="#DejaVuSans-65" x="454.052734"/>
     </g>
    </g>
    <g id="PathCollection_4">
     <g>
      <use xlink:href="#m46dddfe13d" x="66.81" y="216.224687" style="fill: #0000ff; stroke: #0000ff"/>
     </g>
    </g>
    <g id="text_14">
     <!-- dh_dt_FD Forward Difference -->
     <g transform="translate(84.81 218.849687) scale(0.1 -0.1)">
      <defs>
       <path id="DejaVuSans-5f" d="M 3263 -1063 
L 3263 -1509 
L -63 -1509 
L -63 -1063 
L 3263 -1063 
z
" transform="scale(0.015625)"/>
       <path id="DejaVuSans-46" d="M 628 4666 
L 3309 4666 
L 3309 4134 
L 1259 4134 
L 1259 2759 
L 3109 2759 
L 3109 2228 
L 1259 2228 
L 1259 0 
L 628 0 
L 628 4666 
z
" transform="scale(0.015625)"/>
       <path id="DejaVuSans-6e" d="M 3513 2113 
L 3513 0 
L 2938 0 
L 2938 2094 
Q 2938 2591 2744 2837 
Q 2550 3084 2163 3084 
Q 1697 3084 1428 2787 
Q 1159 2491 1159 1978 
L 1159 0 
L 581 0 
L 581 3500 
L 1159 3500 
L 1159 2956 
Q 1366 3272 1645 3428 
Q 1925 3584 2291 3584 
Q 2894 3584 3203 3211 
Q 3513 2838 3513 2113 
z
" transform="scale(0.015625)"/>
       <path id="DejaVuSans-63" d="M 3122 3366 
L 3122 2828 
Q 2878 2963 2633 3030 
Q 2388 3097 2138 3097 
Q 1578 3097 1268 2742 
Q 959 2388 959 1747 
Q 959 1106 1268 751 
Q 1578 397 2138 397 
Q 2388 397 2633 464 
Q 2878 531 3122 666 
L 3122 134 
Q 2881 22 2623 -34 
Q 2366 -91 2075 -91 
Q 1284 -91 818 406 
Q 353 903 353 1747 
Q 353 2603 823 3093 
Q 1294 3584 2113 3584 
Q 2378 3584 2631 3529 
Q 2884 3475 3122 3366 
z
" transform="scale(0.015625)"/>
      </defs>
      <use xlink:href="#DejaVuSans-64"/>
      <use xlink:href="#DejaVuSans-68" x="63.476562"/>
      <use xlink:href="#DejaVuSans-5f" x="126.855469"/>
      <use xlink:href="#DejaVuSans-64" x="176.855469"/>
      <use xlink:href="#DejaVuSans-74" x="240.332031"/>
      <use xlink:href="#DejaVuSans-5f" x="279.541016"/>
      <use xlink:href="#DejaVuSans-46" x="329.541016"/>
      <use xlink:href="#DejaVuSans-44" x="387.060547"/>
      <use xlink:href="#DejaVuSans-20" x="464.0625"/>
      <use xlink:href="#DejaVuSans-46" x="495.849609"/>
      <use xlink:href="#DejaVuSans-6f" x="549.744141"/>
      <use xlink:href="#DejaVuSans-72" x="610.925781"/>
      <use xlink:href="#DejaVuSans-77" x="652.039062"/>
      <use xlink:href="#DejaVuSans-61" x="733.826172"/>
      <use xlink:href="#DejaVuSans-72" x="795.105469"/>
      <use xlink:href="#DejaVuSans-64" x="834.46875"/>
      <use xlink:href="#DejaVuSans-20" x="897.945312"/>
      <use xlink:href="#DejaVuSans-44" x="929.732422"/>
      <use xlink:href="#DejaVuSans-69" x="1006.734375"/>
      <use xlink:href="#DejaVuSans-66" x="1034.517578"/>
      <use xlink:href="#DejaVuSans-66" x="1069.722656"/>
      <use xlink:href="#DejaVuSans-65" x="1104.927734"/>
      <use xlink:href="#DejaVuSans-72" x="1166.451172"/>
      <use xlink:href="#DejaVuSans-65" x="1205.314453"/>
      <use xlink:href="#DejaVuSans-6e" x="1266.837891"/>
      <use xlink:href="#DejaVuSans-63" x="1330.216797"/>
      <use xlink:href="#DejaVuSans-65" x="1385.197266"/>
     </g>
    </g>
    <g id="PathCollection_5">
     <g>
      <use xlink:href="#ma35b1ee600" x="66.81" y="231.180937" style="fill: #ff0000; stroke: #ff0000"/>
     </g>
    </g>
    <g id="text_15">
     <!-- dh_dt_BD Backward Difference -->
     <g transform="translate(84.81 233.805937) scale(0.1 -0.1)">
      <defs>
       <path id="DejaVuSans-42" d="M 1259 2228 
L 1259 519 
L 2272 519 
Q 2781 519 3026 730 
Q 3272 941 3272 1375 
Q 3272 1813 3026 2020 
Q 2781 2228 2272 2228 
L 1259 2228 
z
M 1259 4147 
L 1259 2741 
L 2194 2741 
Q 2656 2741 2882 2914 
Q 3109 3088 3109 3444 
Q 3109 3797 2882 3972 
Q 2656 4147 2194 4147 
L 1259 4147 
z
M 628 4666 
L 2241 4666 
Q 2963 4666 3353 4366 
Q 3744 4066 3744 3513 
Q 3744 3084 3544 2831 
Q 3344 2578 2956 2516 
Q 3422 2416 3680 2098 
Q 3938 1781 3938 1306 
Q 3938 681 3513 340 
Q 3088 0 2303 0 
L 628 0 
L 628 4666 
z
" transform="scale(0.015625)"/>
       <path id="DejaVuSans-6b" d="M 581 4863 
L 1159 4863 
L 1159 1991 
L 2875 3500 
L 3609 3500 
L 1753 1863 
L 3688 0 
L 2938 0 
L 1159 1709 
L 1159 0 
L 581 0 
L 581 4863 
z
" transform="scale(0.015625)"/>
      </defs>
      <use xlink:href="#DejaVuSans-64"/>
      <use xlink:href="#DejaVuSans-68" x="63.476562"/>
      <use xlink:href="#DejaVuSans-5f" x="126.855469"/>
      <use xlink:href="#DejaVuSans-64" x="176.855469"/>
      <use xlink:href="#DejaVuSans-74" x="240.332031"/>
      <use xlink:href="#DejaVuSans-5f" x="279.541016"/>
      <use xlink:href="#DejaVuSans-42" x="329.541016"/>
      <use xlink:href="#DejaVuSans-44" x="398.144531"/>
      <use xlink:href="#DejaVuSans-20" x="475.146484"/>
      <use xlink:href="#DejaVuSans-42" x="506.933594"/>
      <use xlink:href="#DejaVuSans-61" x="575.537109"/>
      <use xlink:href="#DejaVuSans-63" x="636.816406"/>
      <use xlink:href="#DejaVuSans-6b" x="691.796875"/>
      <use xlink:href="#DejaVuSans-77" x="749.707031"/>
      <use xlink:href="#DejaVuSans-61" x="831.494141"/>
      <use xlink:href="#DejaVuSans-72" x="892.773438"/>
      <use xlink:href="#DejaVuSans-64" x="932.136719"/>
      <use xlink:href="#DejaVuSans-20" x="995.613281"/>
      <use xlink:href="#DejaVuSans-44" x="1027.400391"/>
      <use xlink:href="#DejaVuSans-69" x="1104.402344"/>
      <use xlink:href="#DejaVuSans-66" x="1132.185547"/>
      <use xlink:href="#DejaVuSans-66" x="1167.390625"/>
      <use xlink:href="#DejaVuSans-65" x="1202.595703"/>
      <use xlink:href="#DejaVuSans-72" x="1264.119141"/>
      <use xlink:href="#DejaVuSans-65" x="1302.982422"/>
      <use xlink:href="#DejaVuSans-6e" x="1364.505859"/>
      <use xlink:href="#DejaVuSans-63" x="1427.884766"/>
      <use xlink:href="#DejaVuSans-65" x="1482.865234"/>
     </g>
    </g>
    <g id="PathCollection_6">
     <g>
      <use xlink:href="#mad9af1a5ec" x="66.81" y="246.137187" style="fill: #800080; stroke: #800080"/>
     </g>
    </g>
    <g id="text_16">
     <!-- dh_dt_CD Central Difference -->
     <g transform="translate(84.81 248.762187) scale(0.1 -0.1)">
      <defs>
       <path id="DejaVuSans-43" d="M 4122 4306 
L 4122 3641 
Q 3803 3938 3442 4084 
Q 3081 4231 2675 4231 
Q 1875 4231 1450 3742 
Q 1025 3253 1025 2328 
Q 1025 1406 1450 917 
Q 1875 428 2675 428 
Q 3081 428 3442 575 
Q 3803 722 4122 1019 
L 4122 359 
Q 3791 134 3420 21 
Q 3050 -91 2638 -91 
Q 1578 -91 968 557 
Q 359 1206 359 2328 
Q 359 3453 968 4101 
Q 1578 4750 2638 4750 
Q 3056 4750 3426 4639 
Q 3797 4528 4122 4306 
z
" transform="scale(0.015625)"/>
       <path id="DejaVuSans-6c" d="M 603 4863 
L 1178 4863 
L 1178 0 
L 603 0 
L 603 4863 
z
" transform="scale(0.015625)"/>
      </defs>
      <use xlink:href="#DejaVuSans-64"/>
      <use xlink:href="#DejaVuSans-68" x="63.476562"/>
      <use xlink:href="#DejaVuSans-5f" x="126.855469"/>
      <use xlink:href="#DejaVuSans-64" x="176.855469"/>
      <use xlink:href="#DejaVuSans-74" x="240.332031"/>
      <use xlink:href="#DejaVuSans-5f" x="279.541016"/>
      <use xlink:href="#DejaVuSans-43" x="329.541016"/>
      <use xlink:href="#DejaVuSans-44" x="399.365234"/>
      <use xlink:href="#DejaVuSans-20" x="476.367188"/>
      <use xlink:href="#DejaVuSans-43" x="508.154297"/>
      <use xlink:href="#DejaVuSans-65" x="577.978516"/>
      <use xlink:href="#DejaVuSans-6e" x="639.501953"/>
      <use xlink:href="#DejaVuSans-74" x="702.880859"/>
      <use xlink:href="#DejaVuSans-72" x="742.089844"/>
      <use xlink:href="#DejaVuSans-61" x="783.203125"/>
      <use xlink:href="#DejaVuSans-6c" x="844.482422"/>
      <use xlink:href="#DejaVuSans-20" x="872.265625"/>
      <use xlink:href="#DejaVuSans-44" x="904.052734"/>
      <use xlink:href="#DejaVuSans-69" x="981.054688"/>
      <use xlink:href="#DejaVuSans-66" x="1008.837891"/>
      <use xlink:href="#DejaVuSans-66" x="1044.042969"/>
      <use xlink:href="#DejaVuSans-65" x="1079.248047"/>
      <use xlink:href="#DejaVuSans-72" x="1140.771484"/>
      <use xlink:href="#DejaVuSans-65" x="1179.634766"/>
      <use xlink:href="#DejaVuSans-6e" x="1241.158203"/>
      <use xlink:href="#DejaVuSans-63" x="1304.537109"/>
      <use xlink:href="#DejaVuSans-65" x="1359.517578"/>
     </g>
    </g>
   </g>
  </g>
  <g id="axes_2">
   <g id="PathCollection_7">
    <defs>
     <path id="m16bee79212" d="M -3 3 
L 3 -3 
M -3 -3 
L 3 3 
" style="stroke: #008000; stroke-width: 1.5"/>
    </defs>
    <g clip-path="url(#pa5743987cf)">
     <use xlink:href="#m16bee79212" x="173.493223" y="202.698748" style="fill: #008000; stroke: #008000; stroke-width: 1.5"/>
     <use xlink:href="#m16bee79212" x="218.540973" y="176.334922" style="fill: #008000; stroke: #008000; stroke-width: 1.5"/>
     <use xlink:href="#m16bee79212" x="425.760624" y="75.751232" style="fill: #008000; stroke: #008000; stroke-width: 1.5"/>
     <use xlink:href="#m16bee79212" x="479.817925" y="58.959745" style="fill: #008000; stroke: #008000; stroke-width: 1.5"/>
     <use xlink:href="#m16bee79212" x="650.999376" y="36.143091" style="fill: #008000; stroke: #008000; stroke-width: 1.5"/>
     <use xlink:href="#m16bee79212" x="840.199927" y="49.614675" style="fill: #008000; stroke: #008000; stroke-width: 1.5"/>
    </g>
   </g>
   <g id="matplotlib.axis_3">
    <g id="ytick_5">
     <g id="line2d_13">
      <defs>
       <path id="m2f54317a90" d="M 0 0 
L 3.5 0 
" style="stroke: #000000; stroke-width: 0.8"/>
      </defs>
      <g>
       <use xlink:href="#m2f54317a90" x="1028.95" y="259.110807" style="stroke: #000000; stroke-width: 0.8"/>
      </g>
     </g>
     <g id="text_17">
      <!-- 85 -->
      <g style="fill: #008000" transform="translate(1035.95 262.910026) scale(0.1 -0.1)">
       <defs>
        <path id="DejaVuSans-35" d="M 691 4666 
L 3169 4666 
L 3169 4134 
L 1269 4134 
L 1269 2991 
Q 1406 3038 1543 3061 
Q 1681 3084 1819 3084 
Q 2600 3084 3056 2656 
Q 3513 2228 3513 1497 
Q 3513 744 3044 326 
Q 2575 -91 1722 -91 
Q 1428 -91 1123 -41 
Q 819 9 494 109 
L 494 744 
Q 775 591 1075 516 
Q 1375 441 1709 441 
Q 2250 441 2565 725 
Q 2881 1009 2881 1497 
Q 2881 1984 2565 2268 
Q 2250 2553 1709 2553 
Q 1456 2553 1204 2497 
Q 953 2441 691 2322 
L 691 4666 
z
" transform="scale(0.015625)"/>
       </defs>
       <use xlink:href="#DejaVuSans-38"/>
       <use xlink:href="#DejaVuSans-35" x="63.623047"/>
      </g>
     </g>
    </g>
    <g id="ytick_6">
     <g id="line2d_14">
      <g>
       <use xlink:href="#m2f54317a90" x="1028.95" y="222.355643" style="stroke: #000000; stroke-width: 0.8"/>
      </g>
     </g>
     <g id="text_18">
      <!-- 90 -->
      <g style="fill: #008000" transform="translate(1035.95 226.154861) scale(0.1 -0.1)">
       <defs>
        <path id="DejaVuSans-39" d="M 703 97 
L 703 672 
Q 941 559 1184 500 
Q 1428 441 1663 441 
Q 2288 441 2617 861 
Q 2947 1281 2994 2138 
Q 2813 1869 2534 1725 
Q 2256 1581 1919 1581 
Q 1219 1581 811 2004 
Q 403 2428 403 3163 
Q 403 3881 828 4315 
Q 1253 4750 1959 4750 
Q 2769 4750 3195 4129 
Q 3622 3509 3622 2328 
Q 3622 1225 3098 567 
Q 2575 -91 1691 -91 
Q 1453 -91 1209 -44 
Q 966 3 703 97 
z
M 1959 2075 
Q 2384 2075 2632 2365 
Q 2881 2656 2881 3163 
Q 2881 3666 2632 3958 
Q 2384 4250 1959 4250 
Q 1534 4250 1286 3958 
Q 1038 3666 1038 3163 
Q 1038 2656 1286 2365 
Q 1534 2075 1959 2075 
z
" transform="scale(0.015625)"/>
       </defs>
       <use xlink:href="#DejaVuSans-39"/>
       <use xlink:href="#DejaVuSans-30" x="63.623047"/>
      </g>
     </g>
    </g>
    <g id="ytick_7">
     <g id="line2d_15">
      <g>
       <use xlink:href="#m2f54317a90" x="1028.95" y="185.600478" style="stroke: #000000; stroke-width: 0.8"/>
      </g>
     </g>
     <g id="text_19">
      <!-- 95 -->
      <g style="fill: #008000" transform="translate(1035.95 189.399697) scale(0.1 -0.1)">
       <use xlink:href="#DejaVuSans-39"/>
       <use xlink:href="#DejaVuSans-35" x="63.623047"/>
      </g>
     </g>
    </g>
    <g id="ytick_8">
     <g id="line2d_16">
      <g>
       <use xlink:href="#m2f54317a90" x="1028.95" y="148.845314" style="stroke: #000000; stroke-width: 0.8"/>
      </g>
     </g>
     <g id="text_20">
      <!-- 100 -->
      <g style="fill: #008000" transform="translate(1035.95 152.644533) scale(0.1 -0.1)">
       <use xlink:href="#DejaVuSans-31"/>
       <use xlink:href="#DejaVuSans-30" x="63.623047"/>
       <use xlink:href="#DejaVuSans-30" x="127.246094"/>
      </g>
     </g>
    </g>
    <g id="ytick_9">
     <g id="line2d_17">
      <g>
       <use xlink:href="#m2f54317a90" x="1028.95" y="112.09015" style="stroke: #000000; stroke-width: 0.8"/>
      </g>
     </g>
     <g id="text_21">
      <!-- 105 -->
      <g style="fill: #008000" transform="translate(1035.95 115.889368) scale(0.1 -0.1)">
       <use xlink:href="#DejaVuSans-31"/>
       <use xlink:href="#DejaVuSans-30" x="63.623047"/>
       <use xlink:href="#DejaVuSans-35" x="127.246094"/>
      </g>
     </g>
    </g>
    <g id="ytick_10">
     <g id="line2d_18">
      <g>
       <use xlink:href="#m2f54317a90" x="1028.95" y="75.334985" style="stroke: #000000; stroke-width: 0.8"/>
      </g>
     </g>
     <g id="text_22">
      <!-- 110 -->
      <g style="fill: #008000" transform="translate(1035.95 79.134204) scale(0.1 -0.1)">
       <use xlink:href="#DejaVuSans-31"/>
       <use xlink:href="#DejaVuSans-31" x="63.623047"/>
       <use xlink:href="#DejaVuSans-30" x="127.246094"/>
      </g>
     </g>
    </g>
    <g id="ytick_11">
     <g id="line2d_19">
      <g>
       <use xlink:href="#m2f54317a90" x="1028.95" y="38.579821" style="stroke: #000000; stroke-width: 0.8"/>
      </g>
     </g>
     <g id="text_23">
      <!-- 115 -->
      <g style="fill: #008000" transform="translate(1035.95 42.37904) scale(0.1 -0.1)">
       <use xlink:href="#DejaVuSans-31"/>
       <use xlink:href="#DejaVuSans-31" x="63.623047"/>
       <use xlink:href="#DejaVuSans-35" x="127.246094"/>
      </g>
     </g>
    </g>
    <g id="text_24">
     <!-- Polynomial Fit -->
     <g style="fill: #008000" transform="translate(1066.635938 177.413594) rotate(-90) scale(0.1 -0.1)">
      <defs>
       <path id="DejaVuSans-50" d="M 1259 4147 
L 1259 2394 
L 2053 2394 
Q 2494 2394 2734 2622 
Q 2975 2850 2975 3272 
Q 2975 3691 2734 3919 
Q 2494 4147 2053 4147 
L 1259 4147 
z
M 628 4666 
L 2053 4666 
Q 2838 4666 3239 4311 
Q 3641 3956 3641 3272 
Q 3641 2581 3239 2228 
Q 2838 1875 2053 1875 
L 1259 1875 
L 1259 0 
L 628 0 
L 628 4666 
z
" transform="scale(0.015625)"/>
      </defs>
      <use xlink:href="#DejaVuSans-50"/>
      <use xlink:href="#DejaVuSans-6f" x="56.677734"/>
      <use xlink:href="#DejaVuSans-6c" x="117.859375"/>
      <use xlink:href="#DejaVuSans-79" x="145.642578"/>
      <use xlink:href="#DejaVuSans-6e" x="204.822266"/>
      <use xlink:href="#DejaVuSans-6f" x="268.201172"/>
      <use xlink:href="#DejaVuSans-6d" x="329.382812"/>
      <use xlink:href="#DejaVuSans-69" x="426.794922"/>
      <use xlink:href="#DejaVuSans-61" x="454.578125"/>
      <use xlink:href="#DejaVuSans-6c" x="515.857422"/>
      <use xlink:href="#DejaVuSans-20" x="543.640625"/>
      <use xlink:href="#DejaVuSans-46" x="575.427734"/>
      <use xlink:href="#DejaVuSans-69" x="625.697266"/>
      <use xlink:href="#DejaVuSans-74" x="653.480469"/>
     </g>
    </g>
   </g>
   <g id="line2d_20">
    <path d="M 92.407273 249.452727 
L 101.416823 244.440201 
L 110.426373 239.362094 
L 119.435923 234.227282 
L 128.445473 229.044432 
L 137.455023 223.822012 
L 146.464573 218.56828 
L 155.474123 213.291292 
L 164.483673 207.998899 
L 173.493223 202.698748 
L 182.502773 197.398281 
L 191.512323 192.104734 
L 200.521873 186.825141 
L 209.531423 181.566329 
L 218.540973 176.334922 
L 227.550523 171.137338 
L 236.560073 165.979792 
L 245.569624 160.868293 
L 254.579174 155.808647 
L 263.588724 150.806453 
L 272.598274 145.867108 
L 281.607824 140.995802 
L 290.617374 136.197523 
L 299.626924 131.477051 
L 308.636474 126.838965 
L 317.646024 122.287637 
L 326.655574 117.827236 
L 335.665124 113.461724 
L 344.674674 109.194861 
L 353.684224 105.030201 
L 362.693774 100.971094 
L 371.703324 97.020685 
L 380.712874 93.181914 
L 389.722424 89.457518 
L 398.731974 85.850027 
L 407.741524 82.361769 
L 416.751074 78.994865 
L 425.760624 75.751232 
L 434.770174 72.632585 
L 443.779725 69.64043 
L 452.789275 66.776072 
L 461.798825 64.04061 
L 470.808375 61.434938 
L 479.817925 58.959745 
L 488.827475 56.615518 
L 497.837025 54.402537 
L 506.846575 52.320878 
L 515.856125 50.370412 
L 524.865675 48.550806 
L 533.875225 46.861523 
L 542.884775 45.301819 
L 551.894325 43.870748 
L 560.903875 42.567159 
L 569.913425 41.389694 
L 578.922975 40.336794 
L 587.932525 39.406693 
L 596.942075 38.597421 
L 605.951625 37.906803 
L 614.961175 37.33246 
L 623.970725 36.871808 
L 632.980275 36.522058 
L 641.989826 36.280219 
L 650.999376 36.143091 
L 660.008926 36.107273 
L 669.018476 36.169157 
L 678.028026 36.324934 
L 687.037576 36.570585 
L 696.047126 36.901891 
L 705.056676 37.314426 
L 714.066226 37.80356 
L 723.075776 38.36446 
L 732.085326 38.992085 
L 741.094876 39.681192 
L 750.104426 40.426333 
L 759.113976 41.221855 
L 768.123526 42.0619 
L 777.133076 42.940406 
L 786.142626 43.851107 
L 795.152176 44.78753 
L 804.161726 45.743001 
L 813.171276 46.710639 
L 822.180826 47.683357 
L 831.190376 48.653867 
L 840.199927 49.614675 
L 849.209477 50.558081 
L 858.219027 51.476181 
L 867.228577 52.360868 
L 876.238127 53.203829 
L 885.247677 53.996545 
L 894.257227 54.730297 
L 903.266777 55.396155 
L 912.276327 55.984991 
L 921.285877 56.487467 
L 930.295427 56.894043 
L 939.304977 57.194974 
L 948.314527 57.380311 
L 957.324077 57.439899 
L 966.333627 57.363379 
L 975.343177 57.140189 
L 984.352727 56.759559 
" clip-path="url(#pa5743987cf)" style="fill: none; stroke-dasharray: 5.55,2.4; stroke-dashoffset: 0; stroke: #008000; stroke-opacity: 0.5; stroke-width: 1.5"/>
   </g>
   <g id="patch_8">
    <path d="M 47.81 260.12 
L 47.81 25.44 
" style="fill: none; stroke: #000000; stroke-width: 0.8; stroke-linejoin: miter; stroke-linecap: square"/>
   </g>
   <g id="patch_9">
    <path d="M 1028.95 260.12 
L 1028.95 25.44 
" style="fill: none; stroke: #000000; stroke-width: 0.8; stroke-linejoin: miter; stroke-linecap: square"/>
   </g>
   <g id="patch_10">
    <path d="M 47.81 260.12 
L 1028.95 260.12 
" style="fill: none; stroke: #000000; stroke-width: 0.8; stroke-linejoin: miter; stroke-linecap: square"/>
   </g>
   <g id="patch_11">
    <path d="M 47.81 25.44 
L 1028.95 25.44 
" style="fill: none; stroke: #000000; stroke-width: 0.8; stroke-linejoin: miter; stroke-linecap: square"/>
   </g>
   <g id="text_25">
    <!-- Ice Thickness (2021) -->
    <g transform="translate(476.200313 19.44) scale(0.12 -0.12)">
     <defs>
      <path id="DejaVuSans-49" d="M 628 4666 
L 1259 4666 
L 1259 0 
L 628 0 
L 628 4666 
z
" transform="scale(0.015625)"/>
      <path id="DejaVuSans-54" d="M -19 4666 
L 3928 4666 
L 3928 4134 
L 2272 4134 
L 2272 0 
L 1638 0 
L 1638 4134 
L -19 4134 
L -19 4666 
z
" transform="scale(0.015625)"/>
      <path id="DejaVuSans-28" d="M 1984 4856 
Q 1566 4138 1362 3434 
Q 1159 2731 1159 2009 
Q 1159 1288 1364 580 
Q 1569 -128 1984 -844 
L 1484 -844 
Q 1016 -109 783 600 
Q 550 1309 550 2009 
Q 550 2706 781 3412 
Q 1013 4119 1484 4856 
L 1984 4856 
z
" transform="scale(0.015625)"/>
      <path id="DejaVuSans-29" d="M 513 4856 
L 1013 4856 
Q 1481 4119 1714 3412 
Q 1947 2706 1947 2009 
Q 1947 1309 1714 600 
Q 1481 -109 1013 -844 
L 513 -844 
Q 928 -128 1133 580 
Q 1338 1288 1338 2009 
Q 1338 2731 1133 3434 
Q 928 4138 513 4856 
z
" transform="scale(0.015625)"/>
     </defs>
     <use xlink:href="#DejaVuSans-49"/>
     <use xlink:href="#DejaVuSans-63" x="29.492188"/>
     <use xlink:href="#DejaVuSans-65" x="84.472656"/>
     <use xlink:href="#DejaVuSans-20" x="145.996094"/>
     <use xlink:href="#DejaVuSans-54" x="177.783203"/>
     <use xlink:href="#DejaVuSans-68" x="238.867188"/>
     <use xlink:href="#DejaVuSans-69" x="302.246094"/>
     <use xlink:href="#DejaVuSans-63" x="330.029297"/>
     <use xlink:href="#DejaVuSans-6b" x="385.009766"/>
     <use xlink:href="#DejaVuSans-6e" x="442.919922"/>
     <use xlink:href="#DejaVuSans-65" x="506.298828"/>
     <use xlink:href="#DejaVuSans-73" x="567.822266"/>
     <use xlink:href="#DejaVuSans-73" x="619.921875"/>
     <use xlink:href="#DejaVuSans-20" x="672.021484"/>
     <use xlink:href="#DejaVuSans-28" x="703.808594"/>
     <use xlink:href="#DejaVuSans-32" x="742.822266"/>
     <use xlink:href="#DejaVuSans-30" x="806.445312"/>
     <use xlink:href="#DejaVuSans-32" x="870.068359"/>
     <use xlink:href="#DejaVuSans-31" x="933.691406"/>
     <use xlink:href="#DejaVuSans-29" x="997.314453"/>
    </g>
   </g>
   <g id="legend_2">
    <g id="patch_12">
     <path d="M 866.625 62.79625 
L 1021.95 62.79625 
Q 1023.95 62.79625 1023.95 60.79625 
L 1023.95 32.44 
Q 1023.95 30.44 1021.95 30.44 
L 866.625 30.44 
Q 864.625 30.44 864.625 32.44 
L 864.625 60.79625 
Q 864.625 62.79625 866.625 62.79625 
z
" style="fill: #ffffff; opacity: 0.8; stroke: #cccccc; stroke-linejoin: miter"/>
    </g>
    <g id="PathCollection_8">
     <g>
      <use xlink:href="#m16bee79212" x="878.625" y="39.413437" style="fill: #008000; stroke: #008000; stroke-width: 1.5"/>
     </g>
    </g>
    <g id="text_26">
     <!-- ice measurements* -->
     <g transform="translate(896.625 42.038437) scale(0.1 -0.1)">
      <defs>
       <path id="DejaVuSans-75" d="M 544 1381 
L 544 3500 
L 1119 3500 
L 1119 1403 
Q 1119 906 1312 657 
Q 1506 409 1894 409 
Q 2359 409 2629 706 
Q 2900 1003 2900 1516 
L 2900 3500 
L 3475 3500 
L 3475 0 
L 2900 0 
L 2900 538 
Q 2691 219 2414 64 
Q 2138 -91 1772 -91 
Q 1169 -91 856 284 
Q 544 659 544 1381 
z
M 1991 3584 
L 1991 3584 
z
" transform="scale(0.015625)"/>
       <path id="DejaVuSans-2a" d="M 3009 3897 
L 1888 3291 
L 3009 2681 
L 2828 2375 
L 1778 3009 
L 1778 1831 
L 1422 1831 
L 1422 3009 
L 372 2375 
L 191 2681 
L 1313 3291 
L 191 3897 
L 372 4206 
L 1422 3572 
L 1422 4750 
L 1778 4750 
L 1778 3572 
L 2828 4206 
L 3009 3897 
z
" transform="scale(0.015625)"/>
      </defs>
      <use xlink:href="#DejaVuSans-69"/>
      <use xlink:href="#DejaVuSans-63" x="27.783203"/>
      <use xlink:href="#DejaVuSans-65" x="82.763672"/>
      <use xlink:href="#DejaVuSans-20" x="144.287109"/>
      <use xlink:href="#DejaVuSans-6d" x="176.074219"/>
      <use xlink:href="#DejaVuSans-65" x="273.486328"/>
      <use xlink:href="#DejaVuSans-61" x="335.009766"/>
      <use xlink:href="#DejaVuSans-73" x="396.289062"/>
      <use xlink:href="#DejaVuSans-75" x="448.388672"/>
      <use xlink:href="#DejaVuSans-72" x="511.767578"/>
      <use xlink:href="#DejaVuSans-65" x="550.630859"/>
      <use xlink:href="#DejaVuSans-6d" x="612.154297"/>
      <use xlink:href="#DejaVuSans-65" x="709.566406"/>
      <use xlink:href="#DejaVuSans-6e" x="771.089844"/>
      <use xlink:href="#DejaVuSans-74" x="834.46875"/>
      <use xlink:href="#DejaVuSans-73" x="873.677734"/>
      <use xlink:href="#DejaVuSans-2a" x="925.777344"/>
     </g>
    </g>
    <g id="line2d_21">
     <path d="M 868.625 53.216562 
L 878.625 53.216562 
L 888.625 53.216562 
" style="fill: none; stroke-dasharray: 5.55,2.4; stroke-dashoffset: 0; stroke: #008000; stroke-opacity: 0.5; stroke-width: 1.5"/>
    </g>
    <g id="text_27">
     <!-- Polynomial fit (degree 4) -->
     <g transform="translate(896.625 56.716562) scale(0.1 -0.1)">
      <use xlink:href="#DejaVuSans-50"/>
      <use xlink:href="#DejaVuSans-6f" x="56.677734"/>
      <use xlink:href="#DejaVuSans-6c" x="117.859375"/>
      <use xlink:href="#DejaVuSans-79" x="145.642578"/>
      <use xlink:href="#DejaVuSans-6e" x="204.822266"/>
      <use xlink:href="#DejaVuSans-6f" x="268.201172"/>
      <use xlink:href="#DejaVuSans-6d" x="329.382812"/>
      <use xlink:href="#DejaVuSans-69" x="426.794922"/>
      <use xlink:href="#DejaVuSans-61" x="454.578125"/>
      <use xlink:href="#DejaVuSans-6c" x="515.857422"/>
      <use xlink:href="#DejaVuSans-20" x="543.640625"/>
      <use xlink:href="#DejaVuSans-66" x="575.427734"/>
      <use xlink:href="#DejaVuSans-69" x="610.632812"/>
      <use xlink:href="#DejaVuSans-74" x="638.416016"/>
      <use xlink:href="#DejaVuSans-20" x="677.625"/>
      <use xlink:href="#DejaVuSans-28" x="709.412109"/>
      <use xlink:href="#DejaVuSans-64" x="748.425781"/>
      <use xlink:href="#DejaVuSans-65" x="811.902344"/>
      <use xlink:href="#DejaVuSans-67" x="873.425781"/>
      <use xlink:href="#DejaVuSans-72" x="936.902344"/>
      <use xlink:href="#DejaVuSans-65" x="975.765625"/>
      <use xlink:href="#DejaVuSans-65" x="1037.289062"/>
      <use xlink:href="#DejaVuSans-20" x="1098.8125"/>
      <use xlink:href="#DejaVuSans-34" x="1130.599609"/>
      <use xlink:href="#DejaVuSans-29" x="1194.222656"/>
     </g>
    </g>
   </g>
  </g>
 </g>
 <defs>
  <clipPath id="pa5743987cf">
   <rect x="47.81" y="25.44" width="981.14" height="234.68"/>
  </clipPath>
 </defs>
</svg>
